<svg viewBox="0 0 105 89" fill="none" xmlns="http://www.w3.org/2000/svg">
<g id="Azure">
<path id="Vector" d="M34.9728 0.00137397H65.6903L33.8033 85.9671C33.4758 86.8507 32.8519 87.6186 32.0194 88.1625C31.1869 88.7064 30.1879 88.9989 29.163 88.9987H5.25794C4.48157 88.9986 3.71639 88.8303 3.02559 88.5079C2.33478 88.1855 1.73819 87.7182 1.28509 87.1446C0.832119 86.5708 0.535861 85.9072 0.420846 85.2085C0.305832 84.5099 0.375371 83.7964 0.623705 83.1271L30.3325 3.03235C30.6601 2.14874 31.2841 1.3809 32.1165 0.836916C32.9489 0.292936 33.9479 0.000226265 34.9728 0V0.00137397Z" fill="url(#paint0_linear_545_611)"/>
<path id="Vector_2" d="M79.6101 57.6614H30.8999C30.447 57.6606 30.0043 57.784 29.6295 58.0156C29.2548 58.2471 28.9655 58.576 28.7993 58.9594C28.6331 59.3428 28.5977 59.7629 28.6978 60.1648C28.7979 60.5668 29.0288 60.932 29.3604 61.2128L60.6602 87.7954C61.5715 88.5689 62.7715 88.999 64.0177 88.9989H91.5993L79.6101 57.6614Z" fill="#0078D4"/>
<path id="Vector_3" d="M34.9724 0.0012519C33.9364 -0.00228915 32.9262 0.29566 32.0895 0.851585C31.2528 1.40751 30.6333 2.19229 30.3216 3.0913L0.66034 83.0541C0.395544 83.7259 0.312436 84.4458 0.418048 85.1529C0.52366 85.8601 0.814883 86.5337 1.26709 87.1168C1.71929 87.6999 2.31918 88.1753 3.016 88.5029C3.71283 88.8304 4.4861 89.0005 5.27042 88.9986H29.7931C30.7064 88.8501 31.56 88.4837 32.2667 87.9369C32.9735 87.39 33.508 86.6822 33.8158 85.8859L39.7305 70.0241L60.8594 87.9551C61.7446 88.6215 62.8551 88.9901 64.004 88.9986H91.4833L79.4311 57.6612L44.2983 57.6687L65.8009 0.0012519H34.9724Z" fill="url(#paint1_linear_545_611)"/>
<path id="Vector_4" d="M74.2076 3.02807C73.8805 2.14571 73.2573 1.37899 72.4259 0.83596C71.5945 0.292931 70.5968 0.000970546 69.5734 0.00122086H35.3398C36.3631 0.00132076 37.3605 0.293429 38.1917 0.836418C39.0229 1.37941 39.646 2.14593 39.9733 3.02807L69.6828 83.1262C69.9316 83.7957 70.0014 84.5094 69.8867 85.2083C69.772 85.9072 69.4759 86.5712 69.0231 87.1453C68.5702 87.7193 67.9735 88.187 67.2825 88.5095C66.5915 88.8321 65.826 89.0002 65.0494 88.9999H99.2844C100.061 88.9995 100.826 88.8309 101.516 88.5081C102.207 88.1854 102.803 87.7177 103.256 87.1438C103.708 86.5699 104.005 85.9063 104.12 85.2077C104.235 84.5091 104.165 83.7956 103.917 83.1262L74.2076 3.02807Z" fill="url(#paint2_linear_545_611)"/>
</g>
<defs>
<linearGradient id="paint0_linear_545_611" x1="46.1688" y1="6.59642" x2="19.282" y2="93.8906" gradientUnits="userSpaceOnUse">
<stop stop-color="#114A8B"/>
<stop offset="1" stop-color="#0669BC"/>
</linearGradient>
<linearGradient id="paint1_linear_545_611" x1="56.133" y1="46.5581" x2="48.9084" y2="49.2425" gradientUnits="userSpaceOnUse">
<stop stop-opacity="0.3"/>
<stop offset="0.071" stop-opacity="0.2"/>
<stop offset="0.321" stop-opacity="0.1"/>
<stop offset="0.623" stop-opacity="0.05"/>
<stop offset="1" stop-opacity="0"/>
</linearGradient>
<linearGradient id="paint2_linear_545_611" x1="52.0761" y1="4.09496" x2="81.6971" y2="90.8244" gradientUnits="userSpaceOnUse">
<stop stop-color="#3CCBF4"/>
<stop offset="1" stop-color="#2892DF"/>
</linearGradient>
</defs>
</svg>
