<svg viewBox="0 0 79 100" fill="none" xmlns="http://www.w3.org/2000/svg">
<g id="CSS">
<path id="Vector" d="M39.348 99.9999L7.45572 91.968L0.348511 19.6523H78.443L71.3285 91.9569L39.348 99.9999Z" fill="#264DE4"/>
<path id="Vector_2" d="M65.2381 87.3528L71.3176 25.5652H39.3962V93.8521L65.2381 87.3528Z" fill="#2965F1"/>
<path id="Vector_3" d="M16.6412 52.386L17.5174 61.2552H39.3955V52.386H16.6412ZM14.8804 34.4346L15.7691 43.3038H39.3955V34.4346H14.8804ZM39.3955 75.4204L39.3527 75.4306L28.4646 72.7635L27.7684 65.69H17.9542L19.3238 79.616L39.3505 84.6592L39.3955 84.6481V75.4204Z" fill="#EBEBEB"/>
<path id="Vector_4" d="M18.7282 0H30.569V4.49223H23.68V8.98447H30.5696V13.4764H18.7282V0ZM32.9374 0H44.7785V3.90627H37.8893V4.68746H44.7785V13.6719H32.9377V9.56988H39.827V8.78868H32.9371L32.9374 0ZM47.147 0H58.988V3.90627H52.0988V4.68746H58.988V13.6719H47.147V9.56988H54.0362V8.78868H47.1473V0H47.147Z" fill="black"/>
<path id="Vector_5" d="M62.0874 52.386L63.8522 34.4346H39.3619V43.3038H53.138L52.2484 52.386H39.3619V61.2552H51.4008L50.2657 72.758L39.3616 75.4279V84.6551L59.4043 79.616L59.5512 78.1175L61.849 54.7676L62.0874 52.386Z" fill="white"/>
</g>
</svg>
