<svg viewBox="0 0 121 61" fill="none" xmlns="http://www.w3.org/2000/svg">
<path id="EJs" d="M0.631348 36.9735V24.0188L51.3713 0V11.9009L13.8939 30.2598L51.3799 48.9906V61L0.631348 36.9735ZM119.626 2.57233L75.3509 58.5013H60.1503L104.511 2.56846L119.626 2.57233ZM107.361 51.8031C107.863 51.8119 108.36 51.7199 108.818 51.5337C109.276 51.3475 109.683 51.0717 110.009 50.7262C110.744 49.9353 111.123 48.9228 111.07 47.8904C111.113 46.8344 110.736 45.7995 110.009 44.9733C109.702 44.6123 109.308 44.3201 108.856 44.119C108.405 43.9178 107.909 43.8132 107.406 43.8132C106.903 43.8132 106.406 43.9178 105.955 44.119C105.504 44.3201 105.109 44.6123 104.802 44.9733C104.075 45.7995 103.699 46.8344 103.741 47.8904C103.687 48.9158 104.048 49.9239 104.755 50.7262C105.071 51.0732 105.469 51.3506 105.921 51.5372C106.372 51.7238 106.865 51.8148 107.361 51.8031ZM116.713 55.8398C114.159 57.9298 110.837 59.0837 107.395 59.0766C103.953 59.0694 100.637 57.9017 98.0941 55.8011C96.9241 54.7675 95.9943 53.5324 95.3595 52.1685C94.7247 50.8046 94.3977 49.3395 94.3977 47.8594C94.3977 46.3793 94.7247 44.9142 95.3595 43.5503C95.9943 42.1864 96.9241 40.9513 98.0941 39.9177C100.636 37.8109 103.957 36.6424 107.404 36.6424C110.85 36.6424 114.171 37.8109 116.713 39.9177C117.906 40.9394 118.851 42.1742 119.49 43.5439C120.128 44.9136 120.446 46.3883 120.422 47.8749C120.454 49.361 120.14 50.8365 119.502 52.2059C118.864 53.5753 117.915 54.808 116.717 55.8243L116.713 55.8398ZM72.5957 19.1104C73.0976 19.1193 73.5954 19.0272 74.0533 18.841C74.5112 18.6548 74.9178 18.379 75.244 18.0335C75.9788 17.2426 76.3576 16.2301 76.305 15.1977C76.3477 14.1417 75.9713 13.1069 75.244 12.2806C74.9365 11.9203 74.542 11.6287 74.0908 11.428C73.6395 11.2274 73.1434 11.123 72.6406 11.123C72.1379 11.123 71.6418 11.2274 71.1905 11.428C70.7392 11.6287 70.3447 11.9203 70.0373 12.2806C69.31 13.1069 68.9336 14.1417 68.9763 15.1977C68.9224 16.2231 69.2828 17.2312 69.9903 18.0335C70.3056 18.3805 70.7041 18.6579 71.1556 18.8445C71.6071 19.0311 72.0996 19.1221 72.5957 19.1104ZM81.948 23.1355C79.3942 25.2255 76.0724 26.3794 72.6302 26.3723C69.188 26.3651 65.8721 25.1974 63.329 23.0968C62.1591 22.0632 61.2293 20.8281 60.5945 19.4642C59.9597 18.1003 59.6326 16.6352 59.6326 15.1551C59.6326 13.675 59.9597 12.2099 60.5945 10.846C61.2293 9.48207 62.1591 8.24697 63.329 7.21339C65.8712 5.10659 69.1924 3.93812 72.6385 3.93812C76.0846 3.93812 79.4058 5.10659 81.948 7.21339C83.1447 8.23944 84.0922 9.48002 84.7301 10.856C85.368 12.2321 85.6823 13.7133 85.6529 15.2054C85.6814 16.6883 85.3664 18.1601 84.7283 19.5259C84.0902 20.8918 83.143 22.1214 81.948 23.1355Z" fill="#90A93A"/>
</svg>
