<svg viewBox="0 0 128 34" fill="none" xmlns="http://www.w3.org/2000/svg">
<path id="Express" d="M0.857854 26.5124V13.4473H18.5724V12.6831H0.857854V0.763988H19.6924V0H0.0281982V27.2764H19.8583V26.5124H0.857854ZM35.8306 7.64034L28.4877 16.5415L21.3104 7.64057H20.2318L27.9897 17.1148L19.4848 27.2761H20.4805L28.4872 17.6873L36.5355 27.2761H37.5726L29.0266 17.1143L36.8259 7.64011H35.8304L35.8306 7.64034ZM40.0621 34V21.7755H40.145C40.643 23.5582 41.6248 24.9908 43.0906 26.0733C44.5565 27.1555 46.4232 27.6969 48.691 27.6969C50.1569 27.6969 51.4569 27.4231 52.5908 26.8756C53.7248 26.328 54.6719 25.5831 55.4326 24.6407C56.193 23.6983 56.774 22.6032 57.1751 21.3552C57.576 20.1074 57.7767 18.7957 57.7767 17.4206C57.7767 15.9433 57.569 14.5807 57.1542 13.3329C56.7393 12.0849 56.1378 11.0024 55.3497 10.0857C54.5614 9.16878 53.6072 8.45546 52.487 7.94644C51.367 7.43696 50.1016 7.18222 48.691 7.18222C47.6124 7.18222 46.6099 7.32874 45.6834 7.62154C44.7569 7.91457 43.9342 8.32821 43.2151 8.86313C42.4918 9.40217 41.8622 10.0399 41.3481 10.7541C40.8228 11.48 40.4216 12.2759 40.145 13.1419H40.0621V7.64034H39.2324V34H40.0621ZM48.691 26.9707C46.0915 26.9707 44.0032 26.1494 42.4268 24.5068C40.8504 22.8642 40.0621 20.5018 40.0621 17.4202C40.0621 16.1467 40.2558 14.937 40.643 13.791C41.0302 12.645 41.5902 11.6389 42.323 10.7731C43.056 9.90708 43.9619 9.21945 45.0403 8.7102C46.1189 8.20072 47.336 7.94598 48.691 7.94598C50.074 7.94598 51.2841 8.20072 52.3212 8.7102C53.3582 9.21945 54.2158 9.9135 54.8933 10.7921C55.5708 11.6708 56.0825 12.6769 56.4283 13.81C56.774 14.9434 56.9468 16.1467 56.9468 17.4202C56.9468 18.5664 56.7879 19.7062 56.4697 20.8393C56.1517 21.9727 55.6607 22.9914 54.9969 23.8957C54.3333 24.7996 53.483 25.5381 52.4457 26.1113C51.4083 26.6843 50.1569 26.9707 48.691 26.9707ZM62.34 27.2764V16.1595C62.34 15.0899 62.5059 14.0455 62.838 13.027C63.1697 12.0083 63.6814 11.1104 64.3728 10.3338C65.0643 9.55696 65.9423 8.94568 67.0072 8.49994C68.0719 8.05421 69.3373 7.86963 70.8032 7.94598V7.18199C69.5308 7.15677 68.4178 7.2838 67.4636 7.56399C66.5092 7.84418 65.6865 8.22617 64.9951 8.7102C64.3036 9.194 63.7506 9.76057 63.3358 10.4101C62.9212 11.0587 62.6136 11.7603 62.4229 12.4921H62.34V7.64034H61.5104V27.2766L62.34 27.2764ZM71.8402 17.6112H89.6791C89.7346 16.2613 89.5894 14.9627 89.2436 13.7146C88.898 12.4666 88.3447 11.3587 87.5843 10.3911C86.8236 9.42329 85.8418 8.64646 84.6386 8.06063C83.4355 7.47479 82.0043 7.18199 80.3449 7.18199C79.1555 7.18199 77.9939 7.41128 76.86 7.86986C75.7261 8.32821 74.7303 8.99658 73.873 9.87521C73.0157 10.7538 72.3243 11.8299 71.7989 13.1036C71.2735 14.3768 71.0106 15.8285 71.0106 17.4585C71.0106 18.9101 71.1903 20.2663 71.5499 21.527C71.9094 22.7876 72.4625 23.8829 73.2092 24.8124C73.9562 25.742 74.9173 26.4615 76.0926 26.9707C77.2678 27.4802 78.6854 27.7221 80.3449 27.6966C82.7786 27.6966 84.8254 27.0661 86.4847 25.8057C88.1443 24.5448 89.126 22.7685 89.4303 20.4764H88.6007C88.2411 22.6413 87.3213 24.2649 85.8418 25.3471C84.362 26.4296 82.5022 26.9707 80.2618 26.9707C78.7407 26.9707 77.4546 26.7288 76.4036 26.245C75.3528 25.7612 74.4953 25.0988 73.8315 24.2585C73.1679 23.4179 72.6769 22.431 72.3589 21.2977C72.0407 20.1645 71.8679 18.9355 71.8402 17.6112ZM88.8494 16.8472H71.8405C71.9231 15.4719 72.1998 14.2367 72.6699 13.1417C73.1402 12.0463 73.7555 11.1104 74.5162 10.3338C75.2766 9.55696 76.1618 8.96494 77.1712 8.55726C78.1807 8.14982 79.2663 7.94598 80.4279 7.94598C81.8108 7.94598 83.0274 8.18169 84.0786 8.65288C85.1294 9.12406 86.0076 9.76722 86.713 10.5821C87.4182 11.397 87.9505 12.3458 88.3101 13.428C88.6696 14.5105 88.8494 15.6503 88.8494 16.8472ZM106.896 13.4473H107.726C107.726 11.2569 107.034 9.66518 105.651 8.67191C104.268 7.67863 102.388 7.18199 100.009 7.18199C98.6815 7.18199 97.5615 7.33493 96.6487 7.64057C95.7362 7.94598 94.9894 8.34082 94.4085 8.82461C93.8278 9.30841 93.413 9.84334 93.164 10.4292C92.915 11.015 92.7905 11.5754 92.7905 12.1101C92.7905 13.1797 92.9979 14.0329 93.413 14.6696C93.8278 15.3064 94.4777 15.803 95.3627 16.1595C95.9712 16.4141 96.6624 16.6433 97.437 16.8474C98.2114 17.051 99.1103 17.2675 100.134 17.4965C101.046 17.7006 101.945 17.9042 102.83 18.1078C103.715 18.3116 104.497 18.5854 105.174 18.9291C105.852 19.273 106.405 19.7124 106.834 20.2473C107.262 20.782 107.477 21.4825 107.477 22.3483C107.477 23.1888 107.262 23.9019 106.834 24.4875C106.409 25.0703 105.849 25.5595 105.195 25.9203C104.531 26.2895 103.791 26.5568 102.975 26.7224C102.16 26.8879 101.364 26.9707 100.59 26.9707C98.0732 26.9707 96.144 26.455 94.8027 25.4237C93.4613 24.3921 92.7908 22.7685 92.7908 20.5527H91.9609C91.9609 23.0233 92.6869 24.8315 94.1388 25.9777C95.591 27.1236 97.7413 27.6966 100.59 27.6966C101.503 27.6966 102.422 27.601 103.349 27.41C104.275 27.219 105.105 26.9072 105.838 26.4741C106.565 26.0471 107.175 25.4721 107.622 24.7934C108.078 24.1055 108.306 23.2652 108.306 22.2719C108.306 21.3295 108.106 20.5655 107.705 19.9797C107.304 19.3941 106.778 18.9101 106.128 18.5281C105.478 18.1461 104.746 17.8469 103.93 17.6304C103.109 17.4127 102.286 17.2025 101.461 16.9999C100.446 16.7546 99.4292 16.5127 98.4119 16.2742C97.5409 16.0704 96.7319 15.8285 95.9851 15.5483C95.266 15.2681 94.6921 14.867 94.2633 14.345C93.8346 13.8229 93.6204 13.0779 93.6204 12.1101C93.6204 11.9319 93.6757 11.6134 93.7863 11.1551C93.8968 10.6965 94.1598 10.2318 94.5746 9.76057C94.9894 9.28961 95.6253 8.86933 96.4829 8.49994C97.3402 8.13079 98.5157 7.94598 100.009 7.94598C101.033 7.94598 101.966 8.04802 102.809 8.25162C103.653 8.45546 104.379 8.78013 104.987 9.22587C105.596 9.67161 106.066 10.2382 106.398 10.9258C106.73 11.6137 106.896 12.454 106.896 13.4473ZM126.104 13.4473H126.933C126.933 11.2569 126.242 9.66518 124.859 8.67191C123.476 7.67863 121.596 7.18199 119.217 7.18199C117.89 7.18199 116.769 7.33493 115.857 7.64057C114.944 7.94598 114.197 8.34082 113.617 8.82461C113.036 9.30841 112.621 9.84334 112.372 10.4292C112.123 11.015 111.999 11.5754 111.999 12.1101C111.999 13.1797 112.206 14.0329 112.621 14.6696C113.036 15.3064 113.686 15.803 114.571 16.1595C115.179 16.4141 115.87 16.6433 116.645 16.8474C117.419 17.051 118.318 17.2675 119.341 17.4965C120.254 17.7006 121.153 17.9042 122.038 18.1078C122.923 18.3116 123.704 18.5854 124.382 18.9291C125.06 19.273 125.613 19.7124 126.041 20.2473C126.47 20.782 126.685 21.4825 126.685 22.3483C126.685 23.1888 126.47 23.9019 126.041 24.4875C125.616 25.0703 125.057 25.5595 124.403 25.9203C123.739 26.2895 122.999 26.5568 122.183 26.7224C121.368 26.8879 120.572 26.9707 119.798 26.9707C117.281 26.9707 115.352 26.455 114.011 25.4237C112.669 24.3921 111.999 22.7685 111.999 20.5527H111.169C111.169 23.0233 111.895 24.8315 113.347 25.9777C114.799 27.1236 116.949 27.6966 119.798 27.6966C120.711 27.6966 121.63 27.601 122.557 27.41C123.483 27.219 124.313 26.9072 125.046 26.4741C125.773 26.0471 126.383 25.4721 126.83 24.7934C127.286 24.1055 127.514 23.2652 127.514 22.2719C127.514 21.3295 127.314 20.5655 126.913 19.9797C126.512 19.3941 125.986 18.9101 125.336 18.5281C124.686 18.1461 123.953 17.8469 123.138 17.6304C122.317 17.4127 121.494 17.2025 120.669 16.9999C119.654 16.7546 118.637 16.5127 117.62 16.2742C116.749 16.0704 115.94 15.8285 115.193 15.5483C114.474 15.2681 113.9 14.867 113.471 14.345C113.043 13.8229 112.828 13.0779 112.828 12.1101C112.828 11.9319 112.884 11.6134 112.994 11.1551C113.105 10.6965 113.368 10.2318 113.782 9.76057C114.197 9.28961 114.833 8.86933 115.691 8.49994C116.548 8.13079 117.724 7.94598 119.217 7.94598C120.241 7.94598 121.174 8.04802 122.017 8.25162C122.861 8.45546 123.587 8.78013 124.195 9.22587C124.804 9.67161 125.274 10.2382 125.606 10.9258C125.938 11.6137 126.104 12.454 126.104 13.4473H126.104Z" fill="#222222"/>
</svg>
