<svg viewBox="0 0 52 52" fill="none" xmlns="http://www.w3.org/2000/svg">
<path d="M46.4286 0H5.57143C2.49554 0 0 2.49554 0 5.57143V46.4286C0 49.5045 2.49554 52 5.57143 52H46.4286C49.5045 52 52 49.5045 52 46.4286V5.57143C52 2.49554 49.5045 0 46.4286 0ZM32.1866 44.5366C31.2116 44.7107 30.8518 44.1071 30.8518 43.608C30.8518 42.9813 30.875 39.7777 30.875 37.1893C30.875 35.3786 30.2714 34.2295 29.5634 33.6259C33.858 33.15 38.3848 32.558 38.3848 25.1411C38.3848 23.0286 37.6304 21.9723 36.4 20.6143C36.5973 20.1152 37.2589 18.0607 36.2027 15.3911C34.5893 14.892 30.8982 17.4687 30.8982 17.4687C29.3661 17.0393 27.7062 16.8187 26.0696 16.8187C24.433 16.8187 22.7732 17.0393 21.2411 17.4687C21.2411 17.4687 17.55 14.892 15.9366 15.3911C14.8804 18.0491 15.5304 20.1036 15.7393 20.6143C14.5089 21.9723 13.9286 23.0286 13.9286 25.1411C13.9286 32.5232 18.258 33.15 22.5527 33.6259C21.9955 34.125 21.4964 34.9839 21.3223 36.2143C20.2196 36.7134 17.3991 37.5723 15.7161 34.6009C14.6598 32.767 12.7562 32.6161 12.7562 32.6161C10.8759 32.5929 12.6286 33.8 12.6286 33.8C13.8821 34.3804 14.7643 36.6089 14.7643 36.6089C15.8902 40.0562 21.2759 38.8955 21.2759 38.8955C21.2759 40.5089 21.2991 43.1321 21.2991 43.608C21.2991 44.1071 20.9509 44.7107 19.9643 44.5366C12.3036 41.9714 6.94107 34.6821 6.94107 26.1625C6.94107 15.5071 15.0893 7.41696 25.7446 7.41696C36.4 7.41696 45.0357 15.5071 45.0357 26.1625C45.0473 34.6821 39.8473 41.983 32.1866 44.5366ZM20.8 37.4446C20.5795 37.4911 20.3705 37.3982 20.3473 37.2473C20.3241 37.0732 20.475 36.9223 20.6955 36.8759C20.9161 36.8527 21.125 36.9455 21.1482 37.0964C21.183 37.2473 21.0321 37.3982 20.8 37.4446ZM19.6973 37.3402C19.6973 37.4911 19.5232 37.6187 19.2911 37.6187C19.0357 37.642 18.8616 37.5143 18.8616 37.3402C18.8616 37.1893 19.0357 37.0616 19.2679 37.0616C19.4884 37.0384 19.6973 37.1661 19.6973 37.3402ZM18.1071 37.2125C18.0607 37.3634 17.8286 37.433 17.6312 37.3634C17.4107 37.317 17.2598 37.1429 17.3063 36.992C17.3527 36.8411 17.5848 36.7714 17.7821 36.8179C18.0143 36.8875 18.1652 37.0616 18.1071 37.2125ZM16.6795 36.5857C16.575 36.7134 16.3545 36.6902 16.1804 36.5161C16.0062 36.3652 15.9598 36.1446 16.0759 36.0402C16.1804 35.9125 16.4009 35.9357 16.575 36.1098C16.7259 36.2607 16.7839 36.4929 16.6795 36.5857ZM15.6232 35.5295C15.5188 35.5991 15.3214 35.5295 15.1937 35.3554C15.0661 35.1812 15.0661 34.9839 15.1937 34.9027C15.3214 34.7982 15.5188 34.8795 15.6232 35.0536C15.7509 35.2277 15.7509 35.4366 15.6232 35.5295ZM14.8688 34.4036C14.7643 34.508 14.5902 34.45 14.4625 34.3339C14.3348 34.183 14.3116 34.0089 14.4161 33.9277C14.5205 33.8232 14.6946 33.8812 14.8223 33.9973C14.95 34.1482 14.9732 34.3223 14.8688 34.4036ZM14.0911 33.5446C14.0446 33.6491 13.8937 33.6723 13.7661 33.5911C13.6152 33.5214 13.5455 33.3937 13.592 33.2893C13.6384 33.2196 13.7661 33.1848 13.917 33.2429C14.0679 33.3241 14.1375 33.4518 14.0911 33.5446Z" fill="#607D8B"/>
</svg>
