<svg viewBox="0 0 52 42" fill="black" xmlns="http://www.w3.org/2000/svg">
<path d="M46.8 36.4727H41.6V13.6772L26 23.4467L10.4 13.6772V36.4727H5.2V5.21038H8.32L26 16.2824L43.68 5.21038H46.8M46.8 0H5.2C2.314 0 0 2.31862 0 5.21038V36.4727C0 37.8545 0.547855 39.1798 1.52304 40.157C2.49823 41.1341 3.82087 41.683 5.2 41.683H46.8C48.1791 41.683 49.5018 41.1341 50.477 40.157C51.4521 39.1798 52 37.8545 52 36.4727V5.21038C52 3.8285 51.4521 2.50322 50.477 1.52608C49.5018 0.548949 48.1791 0 46.8 0Z"/>
</svg>
