<svg viewBox="0 0 78 100" fill="none" xmlns="http://www.w3.org/2000/svg">
<g id="html">
<path id="Vector" d="M77.0634 19.6523L70.1123 91.9569L38.8665 99.9999L7.70677 91.968L0.762817 19.6523H77.0634Z" fill="#E44D26"/>
<path id="Vector_2" d="M38.9131 93.852L64.1614 87.3528L70.1013 25.5652H38.9131V93.852Z" fill="#F16529"/>
<path id="Vector_3" d="M25.4004 43.3038H38.9132V34.4346H14.9612L15.1897 36.814L17.5376 61.2552H38.9132V52.386H26.2734L25.4004 43.3038ZM27.5532 65.69H17.9644L19.3025 79.616L38.8692 84.6592L38.9132 84.6481V75.4203L38.8713 75.4306L28.2333 72.7635L27.5532 65.69Z" fill="#EBEBEB"/>
<path id="Vector_4" d="M7.8616 0H12.7158V4.45307H17.1564V0H22.0109V13.485H17.1567V8.96947H12.7161V13.485H7.8619L7.8616 0ZM28.3941 4.47196H24.1213V0H37.5247V4.47196H33.2492V13.485H28.395V4.47196H28.3941ZM39.6518 0H44.7133L47.8268 4.73828L50.9373 0H56.0009V13.485H51.1664V6.80111L47.8268 11.5958H47.743L44.4013 6.80111V13.485H39.6518V0ZM58.4166 0H63.2723V9.02779H70.0987V13.485H58.4163V0H58.4166Z" fill="black"/>
<path id="Vector_5" d="M38.8802 61.2552H50.6425L49.5335 72.758L38.8799 75.4279V84.655L58.4622 79.616L58.6057 78.1175L60.8507 54.7676L61.0837 52.386H38.8802V61.2552ZM38.8802 43.2821V43.3038H61.9528L62.1443 41.3104L62.5797 36.814L62.8079 34.4346H38.8802V43.2821Z" fill="white"/>
</g>
</svg>
