<svg viewBox="0 0 79 100" fill="none" xmlns="http://www.w3.org/2000/svg">
<g id="Javascript">
<path id="path118" d="M1.19263 19.541L1.2049 20.4347C1.21167 20.9262 2.77665 37.1997 4.68269 56.598L8.14819 91.8677L23.724 95.8357C32.2907 98.0181 39.4766 99.8147 39.6926 99.8285C39.9087 99.8423 47.1895 98.0638 55.8723 95.8762C69.7933 92.3689 71.6726 91.8407 71.7723 91.4065C71.9112 90.8017 78.7283 20.8259 78.7213 20.0772L78.7163 19.541H39.9543H1.19263Z" fill="white"/>
<path id="path88" d="M23.8519 96.0731L8.13762 92.0764L7.93227 91.0188C7.74972 90.0787 0.935242 20.8251 0.935242 19.91C0.935242 19.5789 4.91403 19.5413 39.959 19.5413C76.9511 19.5413 78.9827 19.563 78.9798 19.9583C78.9675 21.6658 71.914 91.8365 71.7406 91.9761C71.5216 92.1526 41.1063 99.8627 40.09 99.9994C39.8019 100.038 32.4948 98.2713 23.8519 96.0731ZM49.8678 81.951C55.1495 80.6256 59.5472 79.4728 59.6403 79.3892C59.7335 79.3057 60.3515 73.6073 61.0138 66.7262C61.676 59.8451 62.2847 53.7593 62.3664 53.2022L62.5149 52.1894H51.106H39.6971V56.5981V61.0068H45.8569H52.0166L51.8941 61.543C51.8267 61.8379 51.5647 64.3722 51.312 67.1748C51.0441 70.1444 50.7266 72.3848 50.5508 72.5447C50.385 72.6956 47.8751 73.3948 44.9732 74.0986L39.6971 75.3782V79.8696C39.6971 82.9352 39.7872 84.361 39.9809 84.361C40.1369 84.361 44.586 83.2765 49.8678 81.951ZM62.3648 46.6488C62.1917 45.4811 60.6495 29.819 60.6495 29.2284C60.6495 28.8697 59.7429 28.8353 50.3043 28.8353H39.959V33.4454V38.0555L44.6079 38.2186C47.1647 38.3082 49.8555 38.4447 50.5875 38.5218L51.9183 38.6621L52.2414 42.2682C52.4191 44.2515 52.6308 46.2764 52.7119 46.7679L52.8593 47.6616H57.6871H62.5149L62.3648 46.6488Z" fill="#EAEBEC"/>
<path id="path80" d="M23.724 95.8357L8.14826 91.8677L4.68274 56.5981C2.77671 37.1999 1.21169 20.9264 1.20492 20.4349L1.19263 19.5413H39.9545H78.7164L78.7215 20.0775C78.7285 20.8261 71.9111 90.8019 71.7723 91.4068C71.6726 91.8409 69.7933 92.3692 55.8724 95.8765C47.1896 98.064 39.9087 99.8426 39.6926 99.8288C39.4766 99.815 32.2907 98.0181 23.724 95.8357ZM49.8751 82.1196C55.2593 80.7575 59.7411 79.5306 59.8345 79.3931C59.9278 79.2556 60.5711 73.2662 61.2638 66.0833C61.9566 58.9004 62.5801 52.8358 62.6495 52.6065C62.7686 52.2124 61.8524 52.1894 46.0486 52.1894H29.3216L30.0338 45.3381C30.4255 41.5698 30.7554 38.477 30.7669 38.465C30.7784 38.4531 33.2334 38.3819 36.2224 38.3067C41.1235 38.1835 51.2305 38.5392 51.5686 38.8469C51.6949 38.9618 52.526 46.3804 52.526 47.3932C52.526 47.8925 52.6 47.8999 57.6009 47.8999H62.6759L62.5563 46.8871C62.4905 46.33 62.0606 42.0137 61.601 37.2952L60.7653 28.7161L41.1932 28.655C25.6226 28.6064 21.6208 28.6551 21.619 28.8933C21.6177 29.058 21.5037 30.1043 21.3654 31.2183C21.0308 33.9142 18.4783 59.9623 18.4783 60.6817V61.2451H35.1323H51.7863L51.6378 62.1388C51.5562 62.6303 51.2973 65.1236 51.0625 67.6794C50.8278 70.2353 50.5601 72.3925 50.4677 72.4732C50.2237 72.6863 40.4264 75.0678 39.8155 75.0625C39.5318 75.06 37.0016 74.4856 34.1926 73.786L29.0855 72.5139L28.8982 70.5137C28.7952 69.4136 28.6385 67.8433 28.55 67.0241L28.389 65.5347H23.4337H18.4783L18.4893 66.4283C18.5098 68.0996 19.7009 79.3568 19.8738 79.5141C20.0738 79.6962 39.1066 84.5642 39.6926 84.5833C39.9087 84.5903 44.4908 83.4816 49.8751 82.1196Z" fill="#F0BE25"/>
<path id="path78" d="M23.724 95.8357L8.14826 91.8677L4.68274 56.5981C2.77671 37.1999 1.21169 20.9264 1.20492 20.4349L1.19263 19.5413H39.9545H78.7164L78.7215 20.0775C78.7285 20.8261 71.9111 90.8019 71.7723 91.4068C71.6726 91.8409 69.7933 92.3692 55.8724 95.8765C47.1896 98.064 39.9087 99.8426 39.6926 99.8288C39.4766 99.815 32.2907 98.0181 23.724 95.8357ZM52.7708 90.5273C59.6224 88.807 65.357 87.2789 65.5143 87.1314C65.7591 86.9019 71.6767 27.8903 71.6529 25.916L71.645 25.2606H55.7998H39.9545V26.9288V28.597H30.7879C23.6303 28.597 21.6207 28.6622 21.619 28.8948C21.6177 29.0587 21.5037 30.1043 21.3654 31.2183C21.0308 33.9142 18.4783 59.9623 18.4783 60.6817V61.2451H29.2164H39.9545V68.1561C39.9545 73.5283 39.8816 75.066 39.6272 75.0625C39.4471 75.06 37.0016 74.4856 34.1926 73.786L29.0855 72.5139L28.8982 70.5137C28.7952 69.4136 28.6385 67.8433 28.55 67.0241L28.389 65.5347H23.4337H18.4783L18.4893 66.4283C18.5207 68.9844 19.736 79.4183 20.021 79.5786C20.1942 79.676 24.7501 80.8672 30.1452 82.2256L39.9545 84.6955V89.1752C39.9545 91.6391 40.0352 93.655 40.1339 93.655C40.2325 93.655 45.9191 92.2475 52.7708 90.5273ZM30.0062 45.4021C30.3827 41.6691 30.7421 38.5726 30.8048 38.5209C30.8675 38.4693 32.9519 38.3759 35.4367 38.3133L39.9545 38.1996V45.1945V52.1894H34.6381H29.3216L30.0062 45.4021Z" fill="#E4A126"/>
<path id="path76" d="M25.8155 11.0813V8.81739H29.3512H32.8869V4.40869V0H35.375H37.8631V6.67262V13.3452H31.8393H25.8155V11.0813ZM40.2202 11.5579V9.77062H43.4941C45.2947 9.77062 46.7679 9.71006 46.7679 9.63603C46.7679 9.56201 45.2947 8.04864 43.4941 6.27299L40.2202 3.04454V1.52227V0H47.0298H53.8393V1.77997V3.55995L50.6425 3.62686L47.4457 3.69377L50.7735 6.95459L54.1012 10.2154V11.7803V13.3452H47.1607H40.2202V11.5579Z" fill="#0E0E0F"/>
</g>
</svg>
