<svg viewBox="0 0 111 100" fill="none" xmlns="http://www.w3.org/2000/svg">
<g id="MongoDB">
<path id="Vector" d="M84.4853 0H26.0999C11.874 0 0.341675 10.4933 0.341675 23.4375V76.5625C0.341675 89.5067 11.874 100 26.0999 100H84.4853C98.7111 100 110.243 89.5067 110.243 76.5625V23.4375C110.243 10.4933 98.7111 0 84.4853 0Z" fill="#023430"/>
<path id="Vector_2" d="M73.8267 42.0277C69.3031 23.8711 59.8756 19.0375 57.4706 15.6207C56.4788 14.1155 55.6003 12.5508 54.8411 10.9375C54.714 12.5508 54.4805 13.5664 52.9736 14.7898C49.9483 17.2441 37.0993 26.7715 36.0178 47.4016C35.0103 66.6367 51.5587 78.4973 53.7447 79.7234C55.4258 80.4762 57.4732 79.7395 58.4722 79.0484C66.4491 74.0672 77.3482 60.7867 73.8352 42.0277" fill="#10AA50"/>
<path id="Vector_3" d="M55.5262 69.481C55.1098 74.2419 54.8114 77.0083 53.7536 79.729C53.7536 79.729 54.4478 84.2614 54.9355 89.0626H56.6609C57.0724 85.6816 57.7008 82.3253 58.5429 79.011C56.3093 78.011 55.6121 73.6587 55.5262 69.481Z" fill="#B8C4C2"/>
<path id="Vector_4" d="M58.5403 79.0138C56.283 78.0649 55.63 73.6208 55.5295 69.481C56.0876 62.6517 56.2504 55.8004 56.0172 48.9556C55.8987 45.3642 56.073 15.6907 55.0449 11.3462C55.7483 12.8176 56.5588 14.2447 57.4709 15.6181C59.8758 19.0376 69.3063 23.8712 73.8269 42.0278C77.3485 60.7548 66.5086 74.0001 58.5403 79.0138Z" fill="#12924F"/>
</g>
</svg>
