<svg viewBox="0 0 118 66" fill="none" xmlns="http://www.w3.org/2000/svg">
<g id="Mongoose">
<path id="Vector" d="M6.30809 46.2783C5.40768 46.4934 4.12097 47.1692 3.51365 47.7533L2.91594 48.3024L2.7497 46.3683H0.546248L0.496278 53.3781L0.458801 60.4019H2.96687L3.03798 55.8342C3.12063 50.6798 3.22056 50.1902 4.29202 49.1943C5.07039 48.4729 6.29079 48.0716 7.35744 48.1818C8.25689 48.2718 8.88343 48.6399 9.35813 49.3753C9.67717 49.8684 9.69447 50.2208 9.74924 55.1444L9.79921 60.4019H12.3073L12.3563 55.5273C12.4063 50.8503 12.4236 50.6344 12.781 50.0197C14.085 47.8285 17.5271 47.4928 18.6591 49.4391C19.0003 50.0197 19.0176 50.3423 19.0675 55.2196L19.1339 60.4019H21.492L21.4382 54.6827L21.3882 48.9766L20.9126 48.166C19.8632 46.3543 16.9631 45.6496 14.5607 46.6009C14.1686 46.7565 13.4229 47.2611 12.8983 47.7035C12.02 48.4581 11.9325 48.5044 11.749 48.2281C11.3069 47.5373 10.5776 46.9235 9.84822 46.6018C8.9824 46.2477 7.15372 46.0667 6.30809 46.2783Z" fill="#850000"/>
<path id="Vector_2" d="M27.4166 46.2935C25.3669 46.6913 23.3845 48.0247 22.6052 49.5601C21.4011 51.8772 21.4511 55.205 22.7224 57.4557C24.013 59.757 27.3503 61.0755 30.3821 60.5072C34.52 59.7115 36.4486 57.0884 36.1603 52.658C36.1103 51.8912 35.9566 50.9259 35.8067 50.4817C35.232 48.8099 33.5706 47.2448 31.7034 46.6152C30.6031 46.2331 28.5362 46.0819 27.4166 46.2935ZM30.8914 48.5039C32.7038 49.2689 33.5859 50.8498 33.5706 53.3479C33.5533 55.8801 32.7403 57.4565 31.0452 58.2408C29.9084 58.7742 28.0124 58.79 26.9583 58.3021C26.2328 57.9488 25.3669 57.1496 24.9585 56.444C24.1956 55.1097 24.1629 51.9979 24.8922 50.5735C25.7052 48.9629 27.0467 48.1655 28.9244 48.1506C29.7412 48.1358 30.2495 48.2258 30.8914 48.5039ZM42.3142 46.3389C41.1092 46.6607 40.3808 47.0288 39.6851 47.6732C39.3141 48.0107 38.9557 48.287 38.8894 48.287C38.8221 48.287 38.7558 47.8437 38.7558 47.2903V46.2786L37.7026 46.3223L36.636 46.3687L36.586 53.3776L36.5514 60.4014H39.0931V55.9858C39.1104 51.3237 39.1931 50.5578 39.8715 49.6371C40.3472 48.9612 41.6175 48.3168 42.738 48.1812C44.3466 47.9801 45.9918 48.8256 46.3636 50.0498C46.4838 50.4362 46.5501 52.4412 46.5501 55.5268V60.4014H49.1081L49.0581 54.913L49.0082 49.4395L48.5661 48.5791C48.0578 47.6129 47.2967 46.9834 46.0927 46.5549C45.0423 46.1859 43.2963 46.0801 42.3142 46.3389ZM54.6816 46.2777C52.1245 46.7857 50.3122 48.5493 49.6001 51.2022C49.2792 52.3808 49.3291 54.621 49.6828 55.7244C50.7206 58.9771 53.024 60.5877 56.3613 60.3717C57.649 60.2799 58.7685 59.882 59.6305 59.1913C60.2071 58.7305 60.2599 58.7148 60.3608 59.0068C60.5309 59.5113 60.2599 61.4891 59.9351 62.1641C59.2942 63.4844 58.0228 64.0816 55.8857 64.0816C53.9734 64.0676 52.6819 63.4224 52.3782 62.304C52.2946 62.0129 52.1245 61.9368 51.4989 61.8581C51.1061 61.8191 50.7155 61.763 50.3285 61.6902C49.9739 61.629 49.9364 61.6754 49.9364 62.2743C49.9537 63.745 51.1741 65.0338 53.1402 65.6476C54.008 65.9248 54.6326 66 55.9529 66C59.0059 66 61.1055 65.0181 62.1222 63.1312C62.8843 61.7357 63.0053 60.1102 62.9506 52.658L62.9006 46.3695H60.6971L60.6472 47.1696C60.6145 47.6129 60.5472 47.9801 60.4982 47.9801C60.4434 47.9801 60.1398 47.7668 59.8015 47.5062C58.5139 46.4797 56.3114 45.956 54.6826 46.2786L54.6816 46.2777ZM58.0228 48.5179C58.4985 48.7487 59.1058 49.1623 59.3605 49.4692C61.2593 51.7216 60.9009 56.3679 58.6993 57.808C56.5478 59.2219 53.5486 58.4524 52.482 56.2315C51.9371 55.0949 51.8036 52.5207 52.2283 51.1261C52.5483 50.0034 53.4612 48.9314 54.499 48.4418C55.411 47.9959 56.936 48.0247 58.0228 48.5179ZM68.6624 46.3538C67.2585 46.7219 66.8337 46.9073 65.9007 47.5517C64.0874 48.7802 63.2427 50.6636 63.259 53.4222C63.259 55.4324 63.5973 56.6451 64.5131 57.9339C65.7335 59.6355 67.8168 60.5877 70.3575 60.6034C73.2904 60.6174 75.611 59.4344 76.7815 57.335L77.3734 56.2622L77.8981 57.2432C79.8142 60.9094 85.8134 61.7969 89.2209 58.9456C89.762 58.4997 90.3549 57.8736 90.5249 57.5816C90.7123 57.2747 90.8949 57.0281 90.9449 57.0281C90.9997 57.0281 91.1832 57.3507 91.3533 57.7634C92.2037 59.6057 94.3034 60.6174 97.3015 60.6016C99.0476 60.6016 100.335 60.3114 101.506 59.6355C102.201 59.2376 103.318 58.1001 103.318 57.7783C103.318 57.718 103.402 57.4723 103.505 57.2449L103.672 56.8121L104.163 57.5816C106.284 60.9549 112.199 61.7051 115.415 59.0217C116.248 58.3169 117.382 56.4939 117.111 56.2622C117.027 56.187 116.452 56.061 115.824 55.9998L114.708 55.8643L114.432 56.3837C113.67 57.8238 112.587 58.5478 110.945 58.6693C108.351 58.8853 106.401 57.4259 105.892 54.9287C105.809 54.4846 105.775 54.0832 105.825 54.0369C105.875 53.9923 108.504 53.9617 111.653 53.9617H117.381V53.1354C117.381 52.0739 117.16 51.0317 116.691 49.8976C116.144 48.5782 114.487 47.1084 112.979 46.6012C111.35 46.0478 109.096 46.0819 107.488 46.6764C104.793 47.6732 103.163 50.1599 103.147 53.2412V54.2992L102.472 53.7606C101.742 53.2106 100.286 52.6729 97.9819 52.1229C95.4027 51.5091 94.5398 51.2013 94.0824 50.7239C93.5913 50.1905 93.5577 49.8382 93.9123 49.2235C94.3034 48.5179 95.3854 48.1358 96.9979 48.1358C98.8429 48.1358 99.6732 48.5179 100.269 49.6222C100.605 50.25 100.759 50.4021 101.031 50.3567C101.412 50.296 101.796 50.2455 102.18 50.2054C103.131 50.0987 103.202 49.8679 102.572 48.6551C101.743 47.0437 99.8269 46.2174 96.9652 46.2331C95.6237 46.2471 95.0654 46.3083 94.2707 46.6004C92.541 47.1993 91.558 48.2573 91.3033 49.8067L91.1832 50.5123L90.6585 49.5907C88.0159 44.9889 80.1515 45.0842 77.7982 49.7429L77.3734 50.5875L76.7815 49.5155C76.0348 48.1655 74.8653 47.2142 73.274 46.6607C71.8662 46.1711 69.9001 46.046 68.6624 46.3538ZM72.4409 48.5336C74.186 49.3144 75.0527 50.911 75.0527 53.347C75.0354 56.7203 73.324 58.7148 70.4411 58.7148C68.6788 58.7148 67.2047 57.8238 66.409 56.3085C65.9881 55.4813 65.9506 55.2802 65.9506 53.3479C65.9506 51.092 66.138 50.4511 67.1211 49.4045C68.2915 48.1506 70.6958 47.7519 72.4409 48.5336ZM85.9297 48.3631C86.7465 48.6691 87.8458 49.5916 88.2369 50.2815C88.9836 51.6 89.0999 54.3595 88.4925 55.9701C88.1514 56.876 87.2212 57.8727 86.3208 58.2714C84.7958 58.9771 82.5923 58.7445 81.3393 57.7468C79.2732 56.1074 79.0186 51.5091 80.8972 49.5304C82.0676 48.2713 84.3201 47.7677 85.9297 48.3631ZM112.162 48.4269C113.504 48.9472 114.503 50.1897 114.553 51.3998L114.586 52.0433H105.947L105.997 51.5843C106.112 50.2955 107.096 49.0871 108.488 48.4575C109.401 48.0405 111.146 48.0238 112.162 48.4269ZM92.5746 52.7638C93.2531 53.3321 94.2035 53.6696 97.2189 54.4041C98.6565 54.7574 100.032 55.1744 100.269 55.3266C101.727 56.277 100.965 58.1158 98.9102 58.5635C97.6898 58.8206 96.0312 58.685 95.0491 58.226C94.3697 57.9191 94.165 57.7022 93.7441 56.8917L93.2367 55.9404L91.238 56.1222L91.3542 55.4018C91.4032 55.0039 91.458 53.9459 91.458 53.0558V51.4295L91.778 51.8921C91.9452 52.1386 92.3037 52.5365 92.5746 52.7638ZM64.7177 0.0804543C63.1716 0.137288 60.5684 0.513267 60.5684 0.672402C60.5684 0.739728 62.4057 1.57475 62.5431 1.57475C62.6767 1.57475 64.81 2.5453 65.2799 2.81373C65.9007 3.17222 66.3417 3.50011 66.213 3.50011C66.1303 3.50011 63.9384 2.73067 63.1091 2.40365C62.4345 2.14222 59.6266 1.38414 58.2563 1.0886C57.5193 0.932964 57.207 0.872633 55.9481 0.664534C54.0906 0.354133 51.9122 0.338394 50.9579 0.622564C49.6001 1.02477 49.2955 1.51704 49.2955 3.3401C49.2955 4.34125 49.3493 4.76882 49.5915 5.67117C49.6914 6.06464 49.9874 6.92589 50.1296 7.2188C50.1661 7.30886 50.2949 7.59303 50.4044 7.84747C50.5159 8.09754 50.8493 8.74195 51.1444 9.26832C52.7982 12.2517 55.2736 14.7419 58.7647 16.9322C59.863 17.6185 62.8602 18.9231 64.0595 19.2344C64.3641 19.3096 64.4669 19.4687 64.218 19.4687C63.9384 19.4687 61.4102 18.8313 60.8893 18.6311C60.6919 18.5529 60.4916 18.4809 60.2887 18.4151C58.4898 17.7515 56.1893 16.3909 54.2857 14.8442C52.1998 13.156 50.5325 11.0833 49.3945 8.76381C48.667 7.26777 48.1712 5.5199 48.0501 3.99938C47.9761 3.132 47.9012 2.91953 47.6504 2.9309C47.5677 2.9309 46.7836 2.90467 45.912 2.86357C43.5596 2.77176 40.3347 3.00697 37.1482 3.50798C31.049 4.45055 24.4713 6.63385 17.6986 9.96257C16.5717 10.5156 15.4586 11.0917 14.3603 11.6903C14.2324 11.7585 13.8269 11.9815 13.457 12.1948C13.087 12.4029 12.6527 12.639 12.4951 12.7282C12.1453 12.9118 8.27458 15.3032 7.81332 15.6206C7.63747 15.7387 7.15411 16.0648 6.74955 16.3297C4.91222 17.5705 0.909875 20.5372 0.68117 20.8371C0.567778 20.9884 0.74267 21.0644 0.984829 20.9884C1.10495 20.9473 1.41726 20.8904 1.6671 20.8555C1.92656 20.8222 2.59249 20.6631 3.14696 20.497C3.59204 20.3678 4.03925 20.2448 4.48844 20.128C5.85395 19.8368 6.40746 19.7345 7.21273 19.6278C7.57116 19.5824 8.10833 19.5107 8.41295 19.4687C12.1664 18.9642 13.9576 18.8392 15.6268 18.9572C19.2601 19.2265 22.734 19.7835 24.7222 20.4279C26.2087 20.9132 29.2367 22.4022 30.5705 23.2976C31.3373 23.8239 33.8118 26.0649 34.3566 26.7426C34.7823 27.2777 35.2522 27.7437 35.3656 27.7437C35.3983 27.7437 35.4482 26.0378 35.4569 23.9577L35.4819 20.1778L40.3433 20.1516C44.1679 20.1359 45.2297 20.163 45.297 20.239C45.3883 20.3457 45.6093 20.7042 46.3377 21.9327C47.0344 23.1122 47.3755 23.6797 47.5869 24.025C47.6965 24.2078 47.954 24.6432 48.1712 24.9834C48.3701 25.3287 48.7497 25.9626 49.0072 26.3972C49.2667 26.8344 49.479 27.2016 49.479 27.2165C49.479 27.2926 49.8577 27.7437 49.9249 27.7437C49.9634 27.7437 50.0527 27.6178 50.1171 27.4788C50.1921 27.3258 50.3862 26.9935 50.5418 26.7426C50.7081 26.489 51.0031 25.9959 51.2078 25.6549C51.4115 25.3095 51.6911 24.8365 51.8372 24.6091C52.2446 23.949 52.6694 23.2294 53.0192 22.6453C53.195 22.3428 53.4747 21.8758 53.6361 21.5987C53.8023 21.3224 54.0445 20.9324 54.1742 20.7199C54.2683 20.5535 54.3742 20.3929 54.4913 20.239C54.5615 20.163 55.6531 20.1359 59.5892 20.1516L64.589 20.1778L64.613 27.5619C64.6351 33.3799 64.6591 34.9337 64.7552 34.9337C64.8081 34.9258 65.18 34.7326 65.5595 34.4904C66.0929 34.1494 66.3254 33.9413 66.5714 33.5548C67.1384 32.6787 68.7335 31.2989 69.8079 30.7638C71.11 30.1085 72.5105 29.6301 73.9649 29.3438C75.4448 29.0597 75.8772 29.0177 79.2309 28.9066C85.355 28.7143 86.2631 28.6793 86.3093 28.6382C86.3333 28.6146 86.2507 28.3951 86.1344 28.1451C86.0056 27.9029 85.7807 27.4517 85.6251 27.1527C85.0427 26.0037 85.0427 25.6216 85.651 25.0594C86.0671 24.6695 87.1376 24.325 88.9788 23.9909C89.2834 23.9297 89.662 23.858 89.8215 23.8047C89.9753 23.7636 90.1713 23.733 90.254 23.733C90.4836 23.733 92.3238 23.3194 92.7121 23.1874C92.9792 23.0886 94.4197 22.8044 96.1398 22.5019C96.8864 22.369 98.8275 22.0166 100.435 21.7237C101.452 21.5418 102.514 21.3486 102.79 21.2996C103.068 21.2472 103.464 21.1746 103.668 21.1405C103.872 21.0985 104.139 21.0496 104.268 21.0303C104.396 21.0041 105.047 20.8904 105.7 20.7654C106.194 20.6675 106.69 20.5801 107.188 20.5031C107.65 20.462 111.133 19.7004 111.937 19.4687C113.212 19.091 113.59 18.9423 114.395 18.4492C115.265 17.9106 115.503 17.6185 116.361 16.0648C117.315 14.3335 117.453 14.0406 117.72 13.3132C118.135 12.1537 118.111 11.7104 117.58 11.2252C117.215 10.8912 116.42 10.5458 115.836 10.4697C115.404 10.4216 115.349 10.4356 115.132 10.6481C115.003 10.774 114.895 10.9209 114.895 10.9742C114.895 11.0459 114.745 11.4184 114.332 12.3207C114.295 12.4108 114.212 12.639 114.145 12.82C114.081 13.0185 114.004 13.2135 113.915 13.4041C113.795 13.6393 113.788 13.5973 113.832 12.945C113.878 12.3006 114 11.7585 114.266 10.941C114.312 10.7819 114.379 10.5117 114.403 10.3447L114.449 10.0456L113.491 9.69327C112.702 9.39982 111.916 9.09903 111.134 8.79092C110.827 8.68006 110.518 8.57135 110.208 8.46478C109.888 8.35925 109.571 8.24406 109.26 8.1194C108.938 7.99188 108.615 7.86946 108.289 7.75217C107.667 7.5362 105.505 6.86993 103.668 6.34181C103.168 6.19841 100.26 5.40623 99.973 5.33016C99.5406 5.22866 99.1104 5.11992 98.6824 5.00403C98.5316 4.96993 98.1731 4.87986 97.8944 4.81079C96.2704 4.40159 95.8448 4.29928 95.2615 4.15064C94.9405 4.06384 94.6169 3.9857 94.2909 3.91631C94.116 3.87434 93.6375 3.77291 93.2281 3.68111C91.46 3.30087 89.6899 2.92838 87.9179 2.56366C87.5321 2.48059 87.1458 2.39957 86.759 2.32059C86.4837 2.26503 86.2072 2.21459 85.9297 2.16932C85.5442 2.10518 85.1598 2.0358 84.7766 1.96122C84.1763 1.8536 83.5747 1.75217 82.9719 1.65694C82.4335 1.56908 81.8948 1.48339 81.3556 1.39988C78.8072 0.982804 78.6303 0.956573 74.0572 0.497529C71.2368 0.206364 67.4497 -0.0358367 66.5253 0.00438428C65.9228 0.0228832 65.3205 0.0482418 64.7187 0.0804543H64.7177ZM54.0368 4.20048C56.4728 4.92183 58.8483 5.89851 60.4771 6.84982C61.7676 7.61227 63.3763 8.82589 63.8096 9.368L63.997 9.59534L63.6424 9.46943C63.4503 9.39423 63.0428 9.2351 62.7391 9.10219C61.1151 8.41581 60.9393 8.35461 60.9393 8.50762C60.9393 8.54872 61.3179 9.10219 61.7676 9.7195C62.2308 10.3447 62.6008 10.899 62.6008 10.9471C62.6008 10.9891 62.4259 10.9209 62.2135 10.788C61.3813 10.2695 59.4306 9.52714 59.3182 9.67753C59.2942 9.7195 59.8947 10.4137 60.6597 11.2252C61.4169 12.0357 62.0463 12.7291 62.0463 12.778C62.0463 12.9048 61.8974 12.8882 61.1978 12.653C60.4771 12.4187 60.2887 12.3959 60.2887 12.5516C60.2887 12.6609 61.8512 14.5757 62.472 15.2394C62.6469 15.4204 62.7843 15.5953 62.7843 15.6372C62.7843 15.8383 60.6222 14.56 59.0895 13.4565C56.8985 11.8696 54.7815 9.73436 53.6649 7.97251C52.753 6.53242 52.4368 5.75511 52.4368 4.90172C52.4368 4.40159 52.4657 4.29929 52.6703 4.12529C52.7876 4.00725 52.9365 3.91544 52.9903 3.91544C53.048 3.91544 53.5073 4.04222 54.0368 4.20048ZM83.2054 7.17771C84.0933 7.3211 85.3003 7.50997 85.8836 7.60615C86.4669 7.69708 87.1751 7.80638 87.4547 7.84835C87.7295 7.89644 88.1293 7.96551 88.333 8.00748C88.5339 8.04858 88.9336 8.12115 89.2075 8.18236C90.1252 8.36335 90.3462 8.40532 91.8424 8.72447C93.4491 9.06897 93.7989 9.1328 94.2909 9.2281C94.706 9.2998 95.1231 9.44407 95.1231 9.51227C95.1231 9.53413 94.8156 9.69501 94.4495 9.86814C93.6903 10.2135 93.5327 10.2371 90.4116 10.3455C88.2831 10.4295 87.1511 10.4068 86.1142 10.2555C84.0261 9.96345 82.9469 9.42833 82.1051 8.27329C81.8101 7.87807 81.615 7.76441 80.9395 7.60527C80.6896 7.53707 80.3101 7.44614 80.1102 7.38668C79.9065 7.32897 79.5557 7.23804 79.3318 7.17683C78.6688 7.01857 79.0474 6.92676 80.385 6.92676C81.3095 6.92676 81.9562 6.98447 83.2054 7.17771ZM94.3178 18.8593C94.2415 18.8742 94.1625 18.8742 94.0862 18.8593C94.0228 18.8313 94.0689 18.8173 94.1977 18.8173C94.3265 18.8173 94.3726 18.8322 94.3178 18.8593ZM93.918 18.9572C93.918 18.9983 93.8104 19.0595 93.6682 19.0831C93.0712 19.2305 92.4769 19.3871 91.8856 19.5526C91.7578 19.5946 91.3437 19.7118 90.9651 19.8097C90.0108 20.0598 87.7026 20.7462 87.0828 20.9621C85.921 21.3643 83.1833 22.6873 82.797 23.0353C82.2262 23.5476 82.0475 24.1011 82.1301 25.1547C82.1589 25.5937 82.2262 26.155 82.2791 26.3972C82.3876 26.9245 82.3252 27.0687 82.1042 26.8073C81.8803 26.5502 81.4084 25.6138 81.271 25.1547C81.197 24.9423 81.1134 24.6695 81.0673 24.5339C80.9001 24.0591 80.9674 23.4978 81.2259 23.1533C81.5756 22.668 82.8335 21.8916 84.3124 21.2472C85.012 20.9394 87.054 20.3029 88.9327 19.8018C89.3113 19.7004 89.7245 19.5833 89.8532 19.5526C91.1861 19.1434 93.918 18.7491 93.918 18.9572ZM64.6956 19.5185C64.6707 19.5413 64.5871 19.5527 64.5207 19.5255C64.4458 19.4993 64.4746 19.4766 64.5736 19.4766C64.6793 19.4687 64.7341 19.4923 64.6956 19.5185Z" fill="#850000"/>
<path id="Vector_3" d="M45.3246 35.6881V41.5394H49.9275C53.3821 41.5394 54.5564 41.5132 54.639 41.4371C54.7774 41.3121 54.8062 29.8342 54.6688 29.8342C54.6237 29.8342 54.5564 29.8998 54.5276 29.975C54.4939 30.0511 53.4849 31.4789 52.2828 33.1516C50.382 35.7939 49.8526 36.4375 49.8526 36.1122C49.8526 36.0545 46.7035 31.583 45.8992 30.5022C45.7895 30.3622 45.693 30.2139 45.6109 30.0589C45.537 29.9322 45.4457 29.8351 45.3995 29.8351C45.3621 29.8351 45.3246 32.4696 45.3246 35.6881Z" fill="#850000"/>
</g>
</svg>
