<svg viewBox="0 0 124 100" fill="none" xmlns="http://www.w3.org/2000/svg">
<path id="Reactjs" d="M101.843 32.412C100.533 32.0016 99.2122 31.6214 97.8812 31.2718C98.1048 30.4376 98.3106 29.6135 98.4933 28.8039C101.493 15.5092 99.5319 4.79869 92.8345 1.27228C86.4132 -2.10837 75.9116 1.41672 65.3057 9.84508C64.2604 10.6772 63.2383 11.5333 62.2404 12.4126C61.5724 11.8279 60.8926 11.2546 60.2013 10.6929C49.0857 1.68103 37.9441 -2.11715 31.254 1.41936C24.8384 4.81054 22.9386 14.8792 25.6389 27.4789C25.9076 28.7268 26.2109 29.9682 26.5486 31.202C24.9716 31.6112 23.4498 32.0467 21.9933 32.5104C8.96119 36.6593 0.638672 43.1612 0.638672 49.9053C0.638672 56.8708 9.57328 63.8573 23.1468 68.0937C24.2473 68.4357 25.3569 68.7527 26.4746 69.0442C26.1116 70.3731 25.7893 71.7109 25.5081 73.0562C22.9338 85.4373 24.9441 95.268 31.3424 98.6376C37.9508 102.118 49.0424 98.5411 59.8421 89.9204C60.7178 89.2195 61.5743 88.4988 62.4106 87.759C63.4913 88.7111 64.6008 89.6355 65.7379 90.5311C76.1996 98.7509 86.5315 102.07 92.9235 98.6912C99.5257 95.2012 101.672 84.6404 98.8857 71.7918C98.6662 70.7852 98.4201 69.7836 98.1476 68.7878C98.9265 68.5771 99.6911 68.3602 100.436 68.1345C114.547 63.8657 123.729 56.9639 123.729 49.9053C123.729 43.1366 115.137 36.5909 101.843 32.412ZM98.7828 63.5772C98.1096 63.7805 97.4192 63.9768 96.7152 64.1677C95.1574 59.6645 93.0552 54.8762 90.4824 49.9286C92.9374 45.0991 94.9588 40.3719 96.4729 35.898C97.7322 36.2308 98.954 36.5816 100.132 36.9517C111.523 40.5326 118.47 45.8262 118.47 49.9053C118.47 54.2501 110.967 59.8906 98.7828 63.5772ZM93.7274 72.7243C94.9593 78.4055 95.1348 83.5424 94.3188 87.5583C93.5861 91.1668 92.1119 93.5724 90.2886 94.5361C86.4098 96.5864 78.1142 93.9214 69.1676 86.8914C68.11 86.0587 67.0779 85.1993 66.0726 84.3142C69.5412 80.8506 73.0074 76.8241 76.3905 72.352C82.3411 71.8699 87.9629 71.0814 93.061 70.0053C93.3066 70.9067 93.5288 71.8133 93.7274 72.7243ZM42.6028 94.1818C38.8129 95.4036 35.7943 95.4388 33.9696 94.4781C30.087 92.4335 28.4729 84.5399 30.6746 73.9519C30.9363 72.7007 31.2359 71.4564 31.5732 70.2204C36.6151 71.239 42.196 71.9713 48.1606 72.413C51.5667 76.789 55.1329 80.8111 58.7271 84.3331C57.9633 85.008 57.1814 85.6656 56.3821 86.3053C51.6061 90.1171 46.8205 92.8216 42.6028 94.1818ZM24.848 63.5504C18.8459 61.677 13.8891 59.2425 10.4916 56.5859C7.43843 54.1988 5.89741 51.8284 5.89741 49.9053C5.89741 45.8126 12.5794 40.5923 23.7243 37.0444C25.0769 36.6141 26.4924 36.208 27.9613 35.8269C29.5018 40.4018 31.5223 45.1852 33.9605 50.0221C31.4905 54.9307 29.4413 59.7905 27.8858 64.4193C26.8656 64.1525 25.8526 63.8627 24.848 63.5504ZM30.7996 26.5565C28.4864 15.7617 30.0226 7.61868 33.8888 5.57492C38.0066 3.39814 47.1124 6.50175 56.71 14.2834C57.3359 14.792 57.9516 15.3109 58.5569 15.8398C54.9805 19.3465 51.447 23.3387 48.0711 27.6888C42.2821 28.1787 36.7406 28.9655 31.6458 30.0197C31.3319 28.8721 31.0498 27.717 30.7996 26.5565ZM83.8951 38.5284C82.6918 36.6303 81.4437 34.7562 80.1519 32.9073C84.0793 33.3608 87.8422 33.9627 91.3757 34.6986C90.315 37.8035 88.9928 41.0494 87.4364 44.3773C86.2987 42.4063 85.1181 40.4563 83.8951 38.5284ZM62.2428 19.2714C64.6681 21.6708 67.0972 24.3494 69.4864 27.2559C64.6397 27.0469 59.785 27.046 54.9382 27.2532C57.3298 24.3735 59.7796 21.6984 62.2428 19.2714ZM40.4516 38.5613C39.2439 40.4737 38.0853 42.4116 36.9767 44.3734C35.4457 41.0573 34.1355 37.7965 33.0657 34.6476C36.5776 33.9302 40.3227 33.3437 44.225 32.8985C42.9189 34.7587 41.6607 36.6471 40.4516 38.5613ZM44.3371 67.2538C40.3054 66.8428 36.504 66.2866 32.9931 65.5885C34.0797 62.3835 35.4188 59.0533 36.9829 55.6661C38.0959 57.6293 39.2594 59.5684 40.4722 61.4817C41.7195 63.4486 43.011 65.3751 44.3371 67.2538ZM62.388 80.8774C59.8955 78.4222 57.4096 75.7059 54.982 72.7845C57.3389 72.8687 59.7416 72.9118 62.1837 72.9118C64.6926 72.9118 67.1727 72.8604 69.6138 72.7612C67.2169 75.7353 64.7969 78.4556 62.388 80.8774ZM87.4859 55.4931C89.1313 58.9176 90.518 62.2302 91.619 65.3804C88.0504 66.1241 84.1971 66.723 80.137 67.1677C81.438 65.2845 82.6979 63.3778 83.9158 61.4487C85.1541 59.488 86.3444 57.5022 87.4859 55.4931ZM79.361 59.0498C77.4965 62.0074 75.5271 64.9088 73.456 67.7495C69.7045 67.9921 65.9446 68.1126 62.1837 68.1108C58.353 68.1108 54.6271 68.0019 51.0392 67.7894C48.9141 64.9553 46.9072 62.0488 45.0227 59.0761C43.1471 56.1192 41.3957 53.0983 39.7712 50.0199C41.3916 46.9409 43.1382 43.9185 45.0073 40.9594L45.0069 40.9598C46.8753 37.9998 48.8662 35.1058 50.9753 32.2838C54.6358 32.0309 58.3895 31.8992 62.1832 31.8992C65.9942 31.8992 69.7532 32.0322 73.4128 32.2869C75.5005 35.1046 77.4787 37.9887 79.3437 40.9339C81.2191 43.8866 82.9888 46.8941 84.65 49.9519C83.0059 53.0409 81.2417 56.0755 79.361 59.0498ZM90.2083 5.43179C94.3299 7.60243 95.933 16.3557 93.3433 27.8345C93.1779 28.5669 92.9923 29.3128 92.7903 30.0693C87.683 28.9927 82.1377 28.1924 76.3318 27.6949C72.9497 23.297 69.445 19.2986 65.9269 15.8372C66.8489 15.0256 67.7929 14.2351 68.7579 13.4663C77.8455 6.24535 86.3387 3.39418 90.2083 5.43179ZM62.1837 39.8688C68.254 39.8688 73.1752 44.3624 73.1752 49.9053C73.1752 55.4483 68.254 59.9419 62.1837 59.9419C56.1133 59.9419 51.1921 55.4483 51.1921 49.9053C51.1921 44.3624 56.1133 39.8688 62.1837 39.8688Z" fill="#00D8FF"/>
</svg>
